# xmcd CD database file
#
# Track frame offsets:
#	187
#	35107
#	65945
#	95352
#	129852
#	170957
#	201810
#	232595
#	256842
#	284270
#
# Disc length: 4184 seconds
#
# Revision: 0
# Processed by: cddbd v1.5.2PL0 Copyright (c) Steve Scherf et al.
# Submitted via: CDex 1.70beta2
#
DISCID=8d10560a
DTITLE=Yutaka Shiina - At The Moment
DYEAR=1996
DGENRE=Jazz
TTITLE0=The Subconsciousness
TTITLE1=The Glow Of The Sunset
TTITLE2=Mr. Day
TTITLE3=The Nearness Of You
TTITLE4=A Night At The Maiden Voyage
TTITLE5=I'm Gettin' Sentimental Over You
TTITLE6=Fascinating Rhythm
TTITLE7=Lover
TTITLE8=Royal Garden Blues
TTITLE9=Far East Bridge
EXTD=YEAR: 1996
EXTT0=
EXTT1=
EXTT2=
EXTT3=
EXTT4=
EXTT5=
EXTT6=
EXTT7=
EXTT8=
EXTT9=
PLAYORDER=
